<mxfile host="app.diagrams.net" modified="2024-05-07T22:42:51.759Z" agent="Mozilla/5.0 (Windows NT 10.0; Win64; x64) AppleWebKit/537.36 (KHTML, like Gecko) Chrome/124.0.0.0 Safari/537.36" etag="vO8vRk4jPSw8E2QJ-Nae" version="24.3.1" type="github">
  <diagram name="Página-1" id="MroU70_0p6NOjouz9SYb">
    <mxGraphModel dx="1160" dy="1160" grid="1" gridSize="10" guides="1" tooltips="1" connect="1" arrows="1" fold="1" page="1" pageScale="1" pageWidth="827" pageHeight="1169" math="0" shadow="0">
      <root>
        <mxCell id="0" />
        <mxCell id="1" parent="0" />
        <mxCell id="soH0RaszXYsst6kE66nV-98" value="" style="rounded=0;whiteSpace=wrap;html=1;fillColor=none;" vertex="1" parent="1">
          <mxGeometry x="267.44" y="649.38" width="90.13" height="43" as="geometry" />
        </mxCell>
        <mxCell id="soH0RaszXYsst6kE66nV-1" value="Profissionais de Saúde" style="rounded=0;whiteSpace=wrap;html=1;" vertex="1" parent="1">
          <mxGeometry x="360" y="90" width="140" height="40" as="geometry" />
        </mxCell>
        <mxCell id="soH0RaszXYsst6kE66nV-2" value="" style="endArrow=none;html=1;rounded=0;" edge="1" parent="1" target="soH0RaszXYsst6kE66nV-3">
          <mxGeometry width="50" height="50" relative="1" as="geometry">
            <mxPoint x="380" y="90" as="sourcePoint" />
            <mxPoint x="360" y="60" as="targetPoint" />
          </mxGeometry>
        </mxCell>
        <mxCell id="soH0RaszXYsst6kE66nV-3" value="&lt;font style=&quot;font-size: 10px;&quot;&gt;NIF&lt;/font&gt;" style="ellipse;whiteSpace=wrap;html=1;fontStyle=4" vertex="1" parent="1">
          <mxGeometry x="320" y="46" width="50" height="20" as="geometry" />
        </mxCell>
        <mxCell id="soH0RaszXYsst6kE66nV-4" value="" style="endArrow=none;html=1;rounded=0;exitX=0.323;exitY=-0.012;exitDx=0;exitDy=0;exitPerimeter=0;entryX=0.6;entryY=1;entryDx=0;entryDy=0;entryPerimeter=0;" edge="1" parent="1" source="soH0RaszXYsst6kE66nV-1" target="soH0RaszXYsst6kE66nV-5">
          <mxGeometry width="50" height="50" relative="1" as="geometry">
            <mxPoint x="404.5" y="90" as="sourcePoint" />
            <mxPoint x="405.5" y="60" as="targetPoint" />
          </mxGeometry>
        </mxCell>
        <mxCell id="soH0RaszXYsst6kE66nV-5" value="&lt;div&gt;nome&lt;/div&gt;" style="ellipse;whiteSpace=wrap;html=1;fontStyle=0;fontSize=10;" vertex="1" parent="1">
          <mxGeometry x="352" y="26" width="50" height="20" as="geometry" />
        </mxCell>
        <mxCell id="soH0RaszXYsst6kE66nV-6" value="" style="endArrow=none;html=1;rounded=0;exitX=0.323;exitY=-0.012;exitDx=0;exitDy=0;exitPerimeter=0;entryX=0.5;entryY=1;entryDx=0;entryDy=0;" edge="1" parent="1" target="soH0RaszXYsst6kE66nV-7">
          <mxGeometry width="50" height="50" relative="1" as="geometry">
            <mxPoint x="430" y="90" as="sourcePoint" />
            <mxPoint x="430.5" y="60" as="targetPoint" />
          </mxGeometry>
        </mxCell>
        <mxCell id="soH0RaszXYsst6kE66nV-7" value="&lt;font style=&quot;font-size: 10px;&quot;&gt;telefone&lt;/font&gt;" style="ellipse;whiteSpace=wrap;html=1;fontStyle=0" vertex="1" parent="1">
          <mxGeometry x="405" y="20" width="50" height="20" as="geometry" />
        </mxCell>
        <mxCell id="soH0RaszXYsst6kE66nV-9" value="" style="endArrow=none;html=1;rounded=0;exitX=0.323;exitY=-0.012;exitDx=0;exitDy=0;exitPerimeter=0;entryX=0.3;entryY=0.91;entryDx=0;entryDy=0;entryPerimeter=0;" edge="1" parent="1" target="soH0RaszXYsst6kE66nV-10">
          <mxGeometry width="50" height="50" relative="1" as="geometry">
            <mxPoint x="455" y="90" as="sourcePoint" />
            <mxPoint x="470" y="40" as="targetPoint" />
          </mxGeometry>
        </mxCell>
        <mxCell id="soH0RaszXYsst6kE66nV-10" value="&lt;font style=&quot;font-size: 10px;&quot;&gt;IBAN&lt;/font&gt;" style="ellipse;whiteSpace=wrap;html=1;fontStyle=0;fontSize=10;" vertex="1" parent="1">
          <mxGeometry x="457.41" y="26" width="50" height="20" as="geometry" />
        </mxCell>
        <mxCell id="soH0RaszXYsst6kE66nV-11" value="&lt;font style=&quot;font-size: 10px;&quot;&gt;morada&lt;/font&gt;" style="ellipse;whiteSpace=wrap;html=1;fontStyle=0;fontSize=10;" vertex="1" parent="1">
          <mxGeometry x="492" y="46" width="50" height="20" as="geometry" />
        </mxCell>
        <mxCell id="soH0RaszXYsst6kE66nV-12" value="" style="endArrow=none;html=1;rounded=0;entryX=0;entryY=1;entryDx=0;entryDy=0;" edge="1" parent="1" target="soH0RaszXYsst6kE66nV-11">
          <mxGeometry width="50" height="50" relative="1" as="geometry">
            <mxPoint x="480" y="90" as="sourcePoint" />
            <mxPoint x="455" y="65" as="targetPoint" />
          </mxGeometry>
        </mxCell>
        <mxCell id="soH0RaszXYsst6kE66nV-14" value="" style="endArrow=none;html=1;rounded=0;entryX=0.5;entryY=1;entryDx=0;entryDy=0;" edge="1" parent="1">
          <mxGeometry width="50" height="50" relative="1" as="geometry">
            <mxPoint x="430" y="160" as="sourcePoint" />
            <mxPoint x="429.75" y="130" as="targetPoint" />
          </mxGeometry>
        </mxCell>
        <mxCell id="soH0RaszXYsst6kE66nV-15" value="&lt;blockquote style=&quot;margin: 0 0 0 40px; border: none; padding: 0px;&quot;&gt;&lt;br&gt;&lt;/blockquote&gt;" style="triangle;whiteSpace=wrap;html=1;rotation=-90;align=center;" vertex="1" parent="1">
          <mxGeometry x="416.25" y="147" width="27.5" height="32.5" as="geometry" />
        </mxCell>
        <mxCell id="soH0RaszXYsst6kE66nV-16" value="" style="endArrow=none;html=1;rounded=0;entryX=0;entryY=0.5;entryDx=0;entryDy=0;" edge="1" parent="1" target="soH0RaszXYsst6kE66nV-15">
          <mxGeometry width="50" height="50" relative="1" as="geometry">
            <mxPoint x="430" y="180" as="sourcePoint" />
            <mxPoint x="429.87" y="190" as="targetPoint" />
            <Array as="points" />
          </mxGeometry>
        </mxCell>
        <mxCell id="soH0RaszXYsst6kE66nV-13" value="" style="shape=curlyBracket;whiteSpace=wrap;html=1;rounded=1;labelPosition=left;verticalLabelPosition=middle;align=right;verticalAlign=middle;rotation=90;size=0.5;" vertex="1" parent="1">
          <mxGeometry x="408.75" y="96.4" width="42.5" height="199.7" as="geometry" />
        </mxCell>
        <mxCell id="soH0RaszXYsst6kE66nV-20" value="Médicos" style="rounded=0;whiteSpace=wrap;html=1;" vertex="1" parent="1">
          <mxGeometry x="293.75" y="210" width="76.25" height="30" as="geometry" />
        </mxCell>
        <mxCell id="soH0RaszXYsst6kE66nV-21" value="Enfermeiros" style="rounded=0;whiteSpace=wrap;html=1;" vertex="1" parent="1">
          <mxGeometry x="499.99999999999994" y="210" width="76.25" height="30" as="geometry" />
        </mxCell>
        <mxCell id="soH0RaszXYsst6kE66nV-22" value="X" style="text;html=1;align=center;verticalAlign=middle;whiteSpace=wrap;rounded=0;" vertex="1" parent="1">
          <mxGeometry x="425" y="163.25" width="10" height="10" as="geometry" />
        </mxCell>
        <mxCell id="soH0RaszXYsst6kE66nV-23" value="" style="endArrow=none;html=1;rounded=0;" edge="1" parent="1" target="soH0RaszXYsst6kE66nV-24">
          <mxGeometry width="50" height="50" relative="1" as="geometry">
            <mxPoint x="306.88" y="210" as="sourcePoint" />
            <mxPoint x="300" y="180" as="targetPoint" />
          </mxGeometry>
        </mxCell>
        <mxCell id="soH0RaszXYsst6kE66nV-24" value="especialidade" style="ellipse;whiteSpace=wrap;html=1;fontStyle=4;fontSize=10;" vertex="1" parent="1">
          <mxGeometry x="260" y="163.25" width="70" height="30" as="geometry" />
        </mxCell>
        <mxCell id="soH0RaszXYsst6kE66nV-25" value="RI-3" style="text;html=1;align=center;verticalAlign=middle;whiteSpace=wrap;rounded=0;fontSize=9;" vertex="1" parent="1">
          <mxGeometry x="282" y="148" width="30" height="16.75" as="geometry" />
        </mxCell>
        <mxCell id="soH0RaszXYsst6kE66nV-26" value="Clínica" style="rounded=0;whiteSpace=wrap;html=1;" vertex="1" parent="1">
          <mxGeometry x="391.87" y="302" width="76.25" height="30" as="geometry" />
        </mxCell>
        <mxCell id="soH0RaszXYsst6kE66nV-27" value="" style="endArrow=none;html=1;rounded=0;entryX=0.5;entryY=0;entryDx=0;entryDy=0;" edge="1" parent="1" target="soH0RaszXYsst6kE66nV-28">
          <mxGeometry width="50" height="50" relative="1" as="geometry">
            <mxPoint x="405.35" y="332" as="sourcePoint" />
            <mxPoint x="401.9969136870401" y="362.00795506005306" as="targetPoint" />
          </mxGeometry>
        </mxCell>
        <mxCell id="soH0RaszXYsst6kE66nV-28" value="nome" style="ellipse;whiteSpace=wrap;html=1;fontStyle=4;fontSize=10;" vertex="1" parent="1">
          <mxGeometry x="362" y="352" width="51.25" height="20" as="geometry" />
        </mxCell>
        <mxCell id="soH0RaszXYsst6kE66nV-29" value="" style="endArrow=none;html=1;rounded=0;entryX=0.542;entryY=-0.015;entryDx=0;entryDy=0;entryPerimeter=0;" edge="1" parent="1" target="soH0RaszXYsst6kE66nV-30">
          <mxGeometry width="50" height="50" relative="1" as="geometry">
            <mxPoint x="431.68" y="331.99" as="sourcePoint" />
            <mxPoint x="432" y="362" as="targetPoint" />
          </mxGeometry>
        </mxCell>
        <mxCell id="soH0RaszXYsst6kE66nV-30" value="morada" style="ellipse;whiteSpace=wrap;html=1;fontStyle=0;fontSize=10;" vertex="1" parent="1">
          <mxGeometry x="404.37" y="367" width="51.25" height="20" as="geometry" />
        </mxCell>
        <mxCell id="soH0RaszXYsst6kE66nV-31" value="" style="endArrow=none;html=1;rounded=0;exitX=0.762;exitY=1;exitDx=0;exitDy=0;exitPerimeter=0;entryX=0.5;entryY=0;entryDx=0;entryDy=0;" edge="1" parent="1" source="soH0RaszXYsst6kE66nV-26">
          <mxGeometry width="50" height="50" relative="1" as="geometry">
            <mxPoint x="484.1" y="322" as="sourcePoint" />
            <mxPoint x="474.375" y="352" as="targetPoint" />
          </mxGeometry>
        </mxCell>
        <mxCell id="soH0RaszXYsst6kE66nV-32" value="telefone" style="ellipse;whiteSpace=wrap;html=1;fontStyle=0;fontSize=10;" vertex="1" parent="1">
          <mxGeometry x="448.75" y="352" width="51.25" height="20" as="geometry" />
        </mxCell>
        <mxCell id="soH0RaszXYsst6kE66nV-33" value="RI-1" style="text;html=1;align=center;verticalAlign=middle;whiteSpace=wrap;rounded=0;fontSize=9;" vertex="1" parent="1">
          <mxGeometry x="416.25" y="388" width="30" height="10" as="geometry" />
        </mxCell>
        <mxCell id="soH0RaszXYsst6kE66nV-34" value="RI-2" style="text;html=1;align=center;verticalAlign=middle;whiteSpace=wrap;rounded=0;fontSize=9;" vertex="1" parent="1">
          <mxGeometry x="462" y="373" width="30" height="10" as="geometry" />
        </mxCell>
        <mxCell id="soH0RaszXYsst6kE66nV-35" value="" style="endArrow=none;html=1;rounded=0;exitX=0.5;exitY=0;exitDx=0;exitDy=0;entryX=0.997;entryY=0.132;entryDx=0;entryDy=0;entryPerimeter=0;" edge="1" parent="1" source="soH0RaszXYsst6kE66nV-36" target="soH0RaszXYsst6kE66nV-20">
          <mxGeometry width="50" height="50" relative="1" as="geometry">
            <mxPoint x="400" y="220" as="sourcePoint" />
            <mxPoint x="370" y="220" as="targetPoint" />
            <Array as="points">
              <mxPoint x="400" y="214" />
            </Array>
          </mxGeometry>
        </mxCell>
        <mxCell id="soH0RaszXYsst6kE66nV-36" value="" style="rhombus;whiteSpace=wrap;html=1;" vertex="1" parent="1">
          <mxGeometry x="385.87" y="240" width="28.38" height="30" as="geometry" />
        </mxCell>
        <mxCell id="soH0RaszXYsst6kE66nV-39" value="" style="endArrow=none;html=1;rounded=0;entryX=0.107;entryY=-0.009;entryDx=0;entryDy=0;entryPerimeter=0;" edge="1" parent="1" target="soH0RaszXYsst6kE66nV-26">
          <mxGeometry width="50" height="50" relative="1" as="geometry">
            <mxPoint x="399.97" y="270" as="sourcePoint" />
            <mxPoint x="400" y="300" as="targetPoint" />
          </mxGeometry>
        </mxCell>
        <mxCell id="soH0RaszXYsst6kE66nV-42" value="aloca &amp;lt;" style="text;html=1;align=center;verticalAlign=middle;whiteSpace=wrap;rounded=0;fontSize=7;rotation=90;" vertex="1" parent="1">
          <mxGeometry x="405" y="250" width="30" height="10" as="geometry" />
        </mxCell>
        <mxCell id="soH0RaszXYsst6kE66nV-44" value="RI-4" style="text;html=1;align=center;verticalAlign=middle;whiteSpace=wrap;rounded=0;fontSize=9;" vertex="1" parent="1">
          <mxGeometry x="402" y="210" width="20" height="10" as="geometry" />
        </mxCell>
        <mxCell id="soH0RaszXYsst6kE66nV-46" value="" style="rhombus;whiteSpace=wrap;html=1;" vertex="1" parent="1">
          <mxGeometry x="444.75" y="240" width="28.38" height="30" as="geometry" />
        </mxCell>
        <mxCell id="soH0RaszXYsst6kE66nV-48" value="" style="endArrow=none;html=1;rounded=0;exitX=0.5;exitY=1;exitDx=0;exitDy=0;entryX=0.882;entryY=0.008;entryDx=0;entryDy=0;entryPerimeter=0;" edge="1" parent="1" source="soH0RaszXYsst6kE66nV-46" target="soH0RaszXYsst6kE66nV-26">
          <mxGeometry width="50" height="50" relative="1" as="geometry">
            <mxPoint x="456.97" y="270" as="sourcePoint" />
            <mxPoint x="460" y="300" as="targetPoint" />
          </mxGeometry>
        </mxCell>
        <mxCell id="soH0RaszXYsst6kE66nV-49" value="aloca &amp;lt;" style="text;html=1;align=center;verticalAlign=middle;whiteSpace=wrap;rounded=0;fontSize=7;rotation=-90;" vertex="1" parent="1">
          <mxGeometry x="425" y="250" width="30" height="10" as="geometry" />
        </mxCell>
        <mxCell id="soH0RaszXYsst6kE66nV-55" value="" style="endArrow=none;html=1;rounded=0;entryX=-0.005;entryY=0.071;entryDx=0;entryDy=0;entryPerimeter=0;exitX=-0.054;exitY=0.671;exitDx=0;exitDy=0;exitPerimeter=0;" edge="1" parent="1" source="soH0RaszXYsst6kE66nV-57" target="soH0RaszXYsst6kE66nV-21">
          <mxGeometry width="50" height="50" relative="1" as="geometry">
            <mxPoint x="457.40932000000004" y="239.99999999999997" as="sourcePoint" />
            <mxPoint x="499.41" y="212.31" as="targetPoint" />
            <Array as="points">
              <mxPoint x="457.41" y="212.21" />
            </Array>
          </mxGeometry>
        </mxCell>
        <mxCell id="soH0RaszXYsst6kE66nV-56" value="" style="endArrow=none;html=1;rounded=0;entryX=-0.001;entryY=0.328;entryDx=0;entryDy=0;entryPerimeter=0;exitX=0;exitY=0.25;exitDx=0;exitDy=0;" edge="1" parent="1" source="soH0RaszXYsst6kE66nV-57">
          <mxGeometry width="50" height="50" relative="1" as="geometry">
            <mxPoint x="460.89822000000004" y="239.45999999999998" as="sourcePoint" />
            <mxPoint x="500.00375" y="214.92" as="targetPoint" />
            <Array as="points">
              <mxPoint x="460" y="215" />
            </Array>
          </mxGeometry>
        </mxCell>
        <mxCell id="soH0RaszXYsst6kE66nV-57" value="" style="triangle;whiteSpace=wrap;html=1;labelBackgroundColor=#000000;fillColor=#000000;rotation=90;" vertex="1" parent="1">
          <mxGeometry x="456.44" y="233.25" width="5" height="6.75" as="geometry" />
        </mxCell>
        <mxCell id="soH0RaszXYsst6kE66nV-60" value="Paciente" style="rounded=0;whiteSpace=wrap;html=1;" vertex="1" parent="1">
          <mxGeometry x="273.37" y="502" width="78.25" height="30" as="geometry" />
        </mxCell>
        <mxCell id="soH0RaszXYsst6kE66nV-61" value="RI-1: A morada é única em Clínica.&lt;div&gt;RI-2: O telefone é único em Clínica.&lt;/div&gt;&lt;div&gt;RI-3:&amp;nbsp;&lt;/div&gt;" style="text;html=1;align=center;verticalAlign=middle;whiteSpace=wrap;rounded=0;" vertex="1" parent="1">
          <mxGeometry x="21.870000000000005" y="970" width="370" height="30" as="geometry" />
        </mxCell>
        <mxCell id="soH0RaszXYsst6kE66nV-63" value="Horário" style="rounded=0;whiteSpace=wrap;html=1;" vertex="1" parent="1">
          <mxGeometry x="80" y="502" width="76.25" height="30" as="geometry" />
        </mxCell>
        <mxCell id="soH0RaszXYsst6kE66nV-67" value="" style="endArrow=none;html=1;rounded=0;exitX=1;exitY=0.5;exitDx=0;exitDy=0;entryX=0;entryY=0.5;entryDx=0;entryDy=0;" edge="1" parent="1" source="soH0RaszXYsst6kE66nV-60" target="soH0RaszXYsst6kE66nV-66">
          <mxGeometry width="50" height="50" relative="1" as="geometry">
            <mxPoint x="350" y="520" as="sourcePoint" />
            <mxPoint x="283.37" y="472" as="targetPoint" />
          </mxGeometry>
        </mxCell>
        <mxCell id="soH0RaszXYsst6kE66nV-66" value="SNS" style="ellipse;whiteSpace=wrap;html=1;fontStyle=4;fontSize=10;" vertex="1" parent="1">
          <mxGeometry x="391" y="476" width="53" height="20" as="geometry" />
        </mxCell>
        <mxCell id="soH0RaszXYsst6kE66nV-68" value="" style="endArrow=none;html=1;rounded=0;exitX=1;exitY=0.5;exitDx=0;exitDy=0;entryX=0;entryY=0.543;entryDx=0;entryDy=0;entryPerimeter=0;" edge="1" parent="1" target="soH0RaszXYsst6kE66nV-69" source="soH0RaszXYsst6kE66nV-60">
          <mxGeometry width="50" height="50" relative="1" as="geometry">
            <mxPoint x="320.12" y="502" as="sourcePoint" />
            <mxPoint x="316.37" y="472" as="targetPoint" />
          </mxGeometry>
        </mxCell>
        <mxCell id="soH0RaszXYsst6kE66nV-69" value="nome" style="ellipse;whiteSpace=wrap;html=1;fontStyle=0;fontSize=10;" vertex="1" parent="1">
          <mxGeometry x="385.9" y="500" width="59.1" height="20" as="geometry" />
        </mxCell>
        <mxCell id="soH0RaszXYsst6kE66nV-70" value="" style="endArrow=none;html=1;rounded=0;exitX=1;exitY=0.5;exitDx=0;exitDy=0;entryX=-0.002;entryY=0.457;entryDx=0;entryDy=0;entryPerimeter=0;" edge="1" parent="1" target="soH0RaszXYsst6kE66nV-71" source="soH0RaszXYsst6kE66nV-60">
          <mxGeometry width="50" height="50" relative="1" as="geometry">
            <mxPoint x="338.62" y="510" as="sourcePoint" />
            <mxPoint x="342.62" y="480" as="targetPoint" />
          </mxGeometry>
        </mxCell>
        <mxCell id="soH0RaszXYsst6kE66nV-71" value="NIF" style="ellipse;whiteSpace=wrap;html=1;fontStyle=0;fontSize=10;" vertex="1" parent="1">
          <mxGeometry x="386.62" y="523" width="58.13" height="20" as="geometry" />
        </mxCell>
        <mxCell id="soH0RaszXYsst6kE66nV-72" value="" style="endArrow=none;html=1;rounded=0;exitX=1;exitY=0.5;exitDx=0;exitDy=0;entryX=0;entryY=0.5;entryDx=0;entryDy=0;" edge="1" parent="1" target="soH0RaszXYsst6kE66nV-75" source="soH0RaszXYsst6kE66nV-60">
          <mxGeometry width="50" height="50" relative="1" as="geometry">
            <mxPoint x="393.06" y="530" as="sourcePoint" />
            <mxPoint x="397.06" y="500" as="targetPoint" />
          </mxGeometry>
        </mxCell>
        <mxCell id="soH0RaszXYsst6kE66nV-73" value="nascimento" style="ellipse;whiteSpace=wrap;html=1;fontStyle=0;fontSize=10;" vertex="1" parent="1">
          <mxGeometry x="388.06" y="546" width="61.94" height="20" as="geometry" />
        </mxCell>
        <mxCell id="soH0RaszXYsst6kE66nV-75" value="morada" style="ellipse;whiteSpace=wrap;html=1;fontStyle=0;fontSize=10;" vertex="1" parent="1">
          <mxGeometry x="387.87" y="569" width="55.69" height="20" as="geometry" />
        </mxCell>
        <mxCell id="soH0RaszXYsst6kE66nV-76" value="" style="endArrow=none;html=1;rounded=0;exitX=1;exitY=0.5;exitDx=0;exitDy=0;entryX=0;entryY=0.5;entryDx=0;entryDy=0;" edge="1" parent="1" target="soH0RaszXYsst6kE66nV-77" source="soH0RaszXYsst6kE66nV-60">
          <mxGeometry width="50" height="50" relative="1" as="geometry">
            <mxPoint x="368.93" y="530" as="sourcePoint" />
            <mxPoint x="417.62" y="528" as="targetPoint" />
          </mxGeometry>
        </mxCell>
        <mxCell id="soH0RaszXYsst6kE66nV-77" value="telefone" style="ellipse;whiteSpace=wrap;html=1;fontStyle=0;fontSize=10;" vertex="1" parent="1">
          <mxGeometry x="387.87" y="592" width="55.69" height="20" as="geometry" />
        </mxCell>
        <mxCell id="soH0RaszXYsst6kE66nV-81" value="" style="endArrow=none;html=1;rounded=0;entryX=0;entryY=0.5;entryDx=0;entryDy=0;exitX=1;exitY=0.5;exitDx=0;exitDy=0;" edge="1" parent="1" source="soH0RaszXYsst6kE66nV-60" target="soH0RaszXYsst6kE66nV-73">
          <mxGeometry width="50" height="50" relative="1" as="geometry">
            <mxPoint x="350" y="520" as="sourcePoint" />
            <mxPoint x="396" y="587" as="targetPoint" />
          </mxGeometry>
        </mxCell>
        <mxCell id="soH0RaszXYsst6kE66nV-82" value="" style="endArrow=none;html=1;rounded=0;exitX=0.5;exitY=0;exitDx=0;exitDy=0;" edge="1" parent="1" source="soH0RaszXYsst6kE66nV-84">
          <mxGeometry width="50" height="50" relative="1" as="geometry">
            <mxPoint x="530" y="400" as="sourcePoint" />
            <mxPoint x="530" y="240" as="targetPoint" />
          </mxGeometry>
        </mxCell>
        <mxCell id="soH0RaszXYsst6kE66nV-84" value="" style="rhombus;whiteSpace=wrap;html=1;" vertex="1" parent="1">
          <mxGeometry x="516.02" y="415" width="28.38" height="30" as="geometry" />
        </mxCell>
        <mxCell id="soH0RaszXYsst6kE66nV-85" value="" style="endArrow=none;html=1;rounded=0;exitX=0;exitY=0.5;exitDx=0;exitDy=0;" edge="1" parent="1" source="soH0RaszXYsst6kE66nV-84">
          <mxGeometry width="50" height="50" relative="1" as="geometry">
            <mxPoint x="540" y="423" as="sourcePoint" />
            <mxPoint x="330" y="500" as="targetPoint" />
            <Array as="points">
              <mxPoint x="330" y="430" />
            </Array>
          </mxGeometry>
        </mxCell>
        <mxCell id="soH0RaszXYsst6kE66nV-86" value="realizam &amp;gt;" style="text;html=1;align=center;verticalAlign=middle;whiteSpace=wrap;rounded=0;fontSize=8;rotation=90;" vertex="1" parent="1">
          <mxGeometry x="524.54" y="416" width="60" height="30" as="geometry" />
        </mxCell>
        <mxCell id="soH0RaszXYsst6kE66nV-88" value="" style="endArrow=none;html=1;rounded=0;" edge="1" parent="1">
          <mxGeometry width="50" height="50" relative="1" as="geometry">
            <mxPoint x="310" y="600" as="sourcePoint" />
            <mxPoint x="310" y="532" as="targetPoint" />
          </mxGeometry>
        </mxCell>
        <mxCell id="soH0RaszXYsst6kE66nV-89" value="" style="endArrow=none;html=1;rounded=0;" edge="1" parent="1">
          <mxGeometry width="50" height="50" relative="1" as="geometry">
            <mxPoint x="313.93" y="600" as="sourcePoint" />
            <mxPoint x="313.93" y="532" as="targetPoint" />
          </mxGeometry>
        </mxCell>
        <mxCell id="soH0RaszXYsst6kE66nV-91" value="" style="rhombus;whiteSpace=wrap;html=1;" vertex="1" parent="1">
          <mxGeometry x="298.31" y="570" width="28.38" height="30" as="geometry" />
        </mxCell>
        <mxCell id="soH0RaszXYsst6kE66nV-93" value="" style="rhombus;whiteSpace=wrap;html=1;" vertex="1" parent="1">
          <mxGeometry x="303.31" y="575" width="18.38" height="20" as="geometry" />
        </mxCell>
        <mxCell id="soH0RaszXYsst6kE66nV-94" value="" style="endArrow=none;html=1;rounded=0;entryX=0.43;entryY=0.941;entryDx=0;entryDy=0;entryPerimeter=0;" edge="1" parent="1" target="soH0RaszXYsst6kE66nV-91">
          <mxGeometry width="50" height="50" relative="1" as="geometry">
            <mxPoint x="310" y="650" as="sourcePoint" />
            <mxPoint x="310" y="630" as="targetPoint" />
          </mxGeometry>
        </mxCell>
        <mxCell id="soH0RaszXYsst6kE66nV-95" value="" style="endArrow=none;html=1;rounded=0;entryX=0.56;entryY=0.946;entryDx=0;entryDy=0;entryPerimeter=0;" edge="1" parent="1" target="soH0RaszXYsst6kE66nV-91">
          <mxGeometry width="50" height="50" relative="1" as="geometry">
            <mxPoint x="314" y="650" as="sourcePoint" />
            <mxPoint x="314" y="630" as="targetPoint" />
          </mxGeometry>
        </mxCell>
        <mxCell id="soH0RaszXYsst6kE66nV-97" value="Sistemas de saúde" style="rounded=0;whiteSpace=wrap;html=1;" vertex="1" parent="1">
          <mxGeometry x="271.84999999999997" y="653.76" width="81.3" height="34.25" as="geometry" />
        </mxCell>
        <mxCell id="soH0RaszXYsst6kE66nV-99" value="" style="endArrow=none;html=1;rounded=0;exitX=1.002;exitY=0.477;exitDx=0;exitDy=0;exitPerimeter=0;" edge="1" parent="1" source="soH0RaszXYsst6kE66nV-98">
          <mxGeometry width="50" height="50" relative="1" as="geometry">
            <mxPoint x="360" y="670" as="sourcePoint" />
            <mxPoint x="400" y="670" as="targetPoint" />
          </mxGeometry>
        </mxCell>
        <mxCell id="soH0RaszXYsst6kE66nV-101" value="&lt;font style=&quot;font-size: 10px;&quot;&gt;nome&lt;/font&gt;" style="ellipse;whiteSpace=wrap;html=1;fontSize=10;fontStyle=4" vertex="1" parent="1">
          <mxGeometry x="396.25" y="660.88" width="50" height="20" as="geometry" />
        </mxCell>
      </root>
    </mxGraphModel>
  </diagram>
</mxfile>
